<svg xmlns="http://www.w3.org/2000/svg" xmlns:xlink="http://www.w3.org/1999/xlink" width="2009" zoomAndPan="magnify" viewBox="0 0 1506.75 1506.749933" height="2009" preserveAspectRatio="xMidYMid meet" version="1.0"><defs><clipPath id="9f0c30184f"><path d="M 0 0 L 1506.316406 0 L 1506.316406 1506.3125 L 0 1506.3125 Z M 0 0 " clip-rule="nonzero"/></clipPath><clipPath id="b0a1cbb57e"><path d="M 74.988281 0 L 1431.328125 0 C 1451.214844 0 1470.289062 7.902344 1484.351562 21.964844 C 1498.414062 36.027344 1506.316406 55.097656 1506.316406 74.988281 L 1506.316406 1431.328125 C 1506.316406 1451.214844 1498.414062 1470.289062 1484.351562 1484.351562 C 1470.289062 1498.414062 1451.214844 1506.3125 1431.328125 1506.3125 L 74.988281 1506.3125 C 55.101562 1506.3125 36.027344 1498.414062 21.964844 1484.351562 C 7.902344 1470.289062 0 1451.214844 0 1431.328125 L 0 74.988281 C 0 55.097656 7.902344 36.027344 21.964844 21.964844 C 36.027344 7.902344 55.101562 0 74.988281 0 Z M 74.988281 0 " clip-rule="nonzero"/></clipPath><clipPath id="f4e15db118"><path d="M 201.050781 201.050781 L 1305.617188 201.050781 L 1305.617188 1305.617188 L 201.050781 1305.617188 Z M 201.050781 201.050781 " clip-rule="nonzero"/></clipPath></defs><g clip-path="url(#9f0c30184f)"><g clip-path="url(#b0a1cbb57e)"><path fill="#902bf5" d="M 0 0 L 1506.3125 0 L 1506.3125 1506.3125 L 0 1506.3125 Z M 0 0 " fill-opacity="1" fill-rule="nonzero"/></g></g><g clip-path="url(#f4e15db118)"><path fill="#ffffff" d="M 753.15625 201.050781 C 744.121094 201.050781 735.089844 201.269531 726.066406 201.714844 C 717.042969 202.15625 708.03125 202.820312 699.039062 203.707031 C 690.046875 204.59375 681.082031 205.699219 672.144531 207.023438 C 663.207031 208.351562 654.308594 209.894531 645.445312 211.65625 C 636.582031 213.421875 627.769531 215.398438 619.003906 217.59375 C 610.242188 219.789062 601.535156 222.199219 592.886719 224.824219 C 584.242188 227.445312 575.664062 230.277344 567.15625 233.324219 C 558.648438 236.367188 550.222656 239.617188 541.875 243.074219 C 533.527344 246.535156 525.269531 250.195312 517.101562 254.058594 C 508.933594 257.921875 500.863281 261.980469 492.894531 266.242188 C 484.925781 270.5 477.066406 274.953125 469.316406 279.597656 C 461.566406 284.242188 453.933594 289.074219 446.421875 294.097656 C 438.910156 299.117188 431.523438 304.316406 424.265625 309.699219 C 417.007812 315.082031 409.886719 320.640625 402.902344 326.371094 C 395.917969 332.105469 389.078125 338.003906 382.382812 344.070312 C 375.6875 350.140625 369.148438 356.367188 362.757812 362.757812 C 356.367188 369.148438 350.140625 375.6875 344.070312 382.382812 C 338.003906 389.078125 332.105469 395.917969 326.371094 402.902344 C 320.640625 409.886719 315.082031 417.007812 309.699219 424.265625 C 304.316406 431.523438 299.117188 438.910156 294.097656 446.421875 C 289.074219 453.933594 284.242188 461.566406 279.597656 469.316406 C 274.953125 477.066406 270.5 484.925781 266.242188 492.894531 C 261.980469 500.863281 257.921875 508.933594 254.058594 517.101562 C 250.195312 525.269531 246.535156 533.527344 243.074219 541.875 C 239.617188 550.222656 236.367188 558.648438 233.324219 567.15625 C 230.277344 575.664062 227.445312 584.242188 224.824219 592.886719 C 222.199219 601.535156 219.789062 610.242188 217.59375 619.003906 C 215.398438 627.769531 213.421875 636.582031 211.65625 645.445312 C 209.894531 654.308594 208.351562 663.207031 207.023438 672.144531 C 205.699219 681.082031 204.59375 690.046875 203.707031 699.039062 C 202.820312 708.03125 202.15625 717.042969 201.714844 726.066406 C 201.269531 735.089844 201.050781 744.121094 201.050781 753.15625 C 201.050781 762.191406 201.269531 771.222656 201.714844 780.246094 C 202.15625 789.273438 202.820312 798.28125 203.707031 807.273438 C 204.59375 816.265625 205.699219 825.230469 207.023438 834.167969 C 208.351562 843.105469 209.894531 852.003906 211.65625 860.867188 C 213.421875 869.730469 215.398438 878.542969 217.59375 887.308594 C 219.789062 896.074219 222.199219 904.777344 224.824219 913.425781 C 227.445312 922.070312 230.277344 930.648438 233.324219 939.15625 C 236.367188 947.664062 239.617188 956.089844 243.074219 964.4375 C 246.535156 972.785156 250.195312 981.042969 254.058594 989.214844 C 257.921875 997.382812 261.980469 1005.449219 266.242188 1013.417969 C 270.5 1021.386719 274.953125 1029.246094 279.597656 1036.996094 C 284.242188 1044.746094 289.074219 1052.378906 294.097656 1059.890625 C 299.117188 1067.402344 304.316406 1074.789062 309.699219 1082.046875 C 315.082031 1089.304688 320.640625 1096.425781 326.371094 1103.410156 C 332.105469 1110.394531 338.003906 1117.234375 344.070312 1123.929688 C 350.140625 1130.625 356.367188 1137.167969 362.757812 1143.554688 C 369.148438 1149.945312 375.6875 1156.171875 382.382812 1162.242188 C 389.078125 1168.308594 395.917969 1174.210938 402.902344 1179.941406 C 409.886719 1185.671875 417.007812 1191.230469 424.265625 1196.613281 C 431.523438 1201.996094 438.910156 1207.195312 446.421875 1212.21875 C 453.933594 1217.238281 461.566406 1222.070312 469.316406 1226.714844 C 477.066406 1231.359375 484.925781 1235.8125 492.894531 1240.070312 C 500.863281 1244.332031 508.933594 1248.390625 517.101562 1252.253906 C 525.269531 1256.117188 533.527344 1259.78125 541.875 1263.238281 C 550.222656 1266.695312 558.648438 1269.945312 567.15625 1272.988281 C 575.664062 1276.035156 584.242188 1278.867188 592.886719 1281.492188 C 601.535156 1284.113281 610.242188 1286.523438 619.003906 1288.71875 C 627.769531 1290.914062 636.582031 1292.894531 645.445312 1294.65625 C 654.308594 1296.417969 663.207031 1297.960938 672.144531 1299.289062 C 681.082031 1300.613281 690.046875 1301.71875 699.039062 1302.605469 C 708.03125 1303.492188 717.042969 1304.15625 726.066406 1304.597656 C 735.089844 1305.042969 744.121094 1305.265625 753.15625 1305.265625 C 762.191406 1305.265625 771.222656 1305.042969 780.246094 1304.597656 C 789.273438 1304.15625 798.28125 1303.492188 807.273438 1302.605469 C 816.265625 1301.71875 825.230469 1300.613281 834.167969 1299.289062 C 843.105469 1297.960938 852.003906 1296.417969 860.867188 1294.65625 C 869.730469 1292.894531 878.542969 1290.914062 887.308594 1288.71875 C 896.074219 1286.523438 904.777344 1284.113281 913.425781 1281.492188 C 922.070312 1278.867188 930.648438 1276.035156 939.15625 1272.988281 C 947.664062 1269.945312 956.089844 1266.695312 964.4375 1263.238281 C 972.785156 1259.78125 981.042969 1256.117188 989.214844 1252.253906 C 997.382812 1248.390625 1005.449219 1244.332031 1013.417969 1240.070312 C 1021.386719 1235.8125 1029.246094 1231.359375 1036.996094 1226.714844 C 1044.746094 1222.070312 1052.378906 1217.238281 1059.890625 1212.21875 C 1067.402344 1207.195312 1074.789062 1201.996094 1082.046875 1196.613281 C 1089.304688 1191.230469 1096.425781 1185.671875 1103.410156 1179.941406 C 1110.394531 1174.210938 1117.234375 1168.308594 1123.929688 1162.242188 C 1130.625 1156.171875 1137.167969 1149.945312 1143.554688 1143.554688 C 1149.945312 1137.167969 1156.171875 1130.625 1162.242188 1123.929688 C 1168.308594 1117.234375 1174.210938 1110.394531 1179.941406 1103.410156 C 1185.671875 1096.425781 1191.230469 1089.304688 1196.613281 1082.046875 C 1201.996094 1074.789062 1207.199219 1067.402344 1212.21875 1059.890625 C 1217.238281 1052.378906 1222.070312 1044.746094 1226.714844 1036.996094 C 1231.359375 1029.246094 1235.8125 1021.386719 1240.070312 1013.417969 C 1244.332031 1005.449219 1248.394531 997.382812 1252.257812 989.214844 C 1256.117188 981.042969 1259.78125 972.785156 1263.238281 964.4375 C 1266.695312 956.089844 1269.945312 947.664062 1272.988281 939.15625 C 1276.035156 930.648438 1278.867188 922.070312 1281.492188 913.425781 C 1284.113281 904.777344 1286.523438 896.074219 1288.71875 887.308594 C 1290.914062 878.542969 1292.894531 869.730469 1294.65625 860.867188 C 1296.417969 852.003906 1297.960938 843.105469 1299.289062 834.167969 C 1300.613281 825.230469 1301.71875 816.265625 1302.605469 807.273438 C 1303.492188 798.28125 1304.15625 789.273438 1304.597656 780.246094 C 1305.042969 771.222656 1305.265625 762.191406 1305.265625 753.15625 C 1305.265625 744.121094 1305.042969 735.089844 1304.597656 726.066406 C 1304.15625 717.042969 1303.492188 708.03125 1302.605469 699.039062 C 1301.71875 690.046875 1300.613281 681.082031 1299.289062 672.144531 C 1297.960938 663.207031 1296.417969 654.308594 1294.65625 645.445312 C 1292.894531 636.582031 1290.914062 627.769531 1288.71875 619.003906 C 1286.523438 610.242188 1284.113281 601.535156 1281.492188 592.886719 C 1278.867188 584.242188 1276.035156 575.664062 1272.988281 567.15625 C 1269.945312 558.648438 1266.695312 550.222656 1263.238281 541.875 C 1259.78125 533.527344 1256.117188 525.269531 1252.257812 517.101562 C 1248.394531 508.933594 1244.332031 500.863281 1240.070312 492.894531 C 1235.8125 484.925781 1231.359375 477.066406 1226.714844 469.316406 C 1222.070312 461.566406 1217.238281 453.933594 1212.21875 446.421875 C 1207.199219 438.910156 1201.996094 431.523438 1196.613281 424.265625 C 1191.230469 417.007812 1185.671875 409.886719 1179.941406 402.902344 C 1174.210938 395.917969 1168.308594 389.078125 1162.242188 382.382812 C 1156.171875 375.6875 1149.945312 369.148438 1143.554688 362.757812 C 1137.167969 356.367188 1130.625 350.140625 1123.929688 344.070312 C 1117.234375 338.003906 1110.394531 332.105469 1103.410156 326.371094 C 1096.425781 320.640625 1089.304688 315.082031 1082.046875 309.699219 C 1074.789062 304.316406 1067.402344 299.117188 1059.890625 294.097656 C 1052.378906 289.074219 1044.746094 284.242188 1036.996094 279.597656 C 1029.246094 274.953125 1021.386719 270.5 1013.417969 266.242188 C 1005.449219 261.980469 997.382812 257.921875 989.214844 254.058594 C 981.042969 250.195312 972.785156 246.535156 964.4375 243.074219 C 956.089844 239.617188 947.664062 236.367188 939.15625 233.324219 C 930.648438 230.277344 922.070312 227.445312 913.425781 224.824219 C 904.777344 222.199219 896.074219 219.789062 887.308594 217.59375 C 878.542969 215.398438 869.730469 213.421875 860.867188 211.65625 C 852.003906 209.894531 843.105469 208.351562 834.167969 207.023438 C 825.230469 205.699219 816.265625 204.59375 807.273438 203.707031 C 798.28125 202.820312 789.273438 202.15625 780.246094 201.714844 C 771.222656 201.269531 762.191406 201.050781 753.15625 201.050781 Z M 523.113281 700.707031 C 523.539062 699.660156 524.042969 698.65625 524.621094 697.683594 C 525.199219 696.714844 525.84375 695.789062 526.558594 694.914062 C 527.269531 694.039062 528.046875 693.222656 528.878906 692.460938 C 529.714844 691.699219 530.597656 691.003906 531.535156 690.371094 C 532.472656 689.738281 533.449219 689.179688 534.46875 688.695312 C 535.488281 688.207031 536.535156 687.796875 537.613281 687.464844 C 538.695312 687.132812 539.792969 686.878906 540.90625 686.707031 C 542.023438 686.539062 543.148438 686.449219 544.277344 686.445312 L 626.171875 686.445312 L 626.171875 456.398438 C 626.171875 455.644531 626.207031 454.894531 626.28125 454.144531 C 626.355469 453.394531 626.46875 452.648438 626.613281 451.910156 C 626.761719 451.171875 626.945312 450.441406 627.164062 449.722656 C 627.382812 449 627.636719 448.292969 627.921875 447.59375 C 628.210938 446.898438 628.53125 446.21875 628.886719 445.554688 C 629.242188 444.890625 629.628906 444.246094 630.050781 443.617188 C 630.46875 442.992188 630.914062 442.386719 631.394531 441.804688 C 631.871094 441.222656 632.378906 440.664062 632.910156 440.132812 C 633.441406 439.597656 634 439.09375 634.582031 438.617188 C 635.164062 438.136719 635.769531 437.691406 636.394531 437.269531 C 637.023438 436.851562 637.667969 436.464844 638.332031 436.109375 C 638.996094 435.753906 639.675781 435.433594 640.371094 435.144531 C 641.070312 434.855469 641.777344 434.605469 642.5 434.386719 C 643.21875 434.167969 643.949219 433.984375 644.6875 433.835938 C 645.425781 433.6875 646.171875 433.578125 646.921875 433.503906 C 647.671875 433.429688 648.421875 433.394531 649.175781 433.394531 L 859.4375 433.394531 C 860.191406 433.394531 860.941406 433.429688 861.691406 433.503906 C 862.441406 433.578125 863.1875 433.6875 863.925781 433.835938 C 864.664062 433.984375 865.394531 434.167969 866.113281 434.386719 C 866.835938 434.605469 867.542969 434.855469 868.242188 435.144531 C 868.9375 435.433594 869.617188 435.753906 870.28125 436.109375 C 870.945312 436.464844 871.589844 436.851562 872.21875 437.269531 C 872.84375 437.691406 873.449219 438.136719 874.03125 438.617188 C 874.613281 439.09375 875.171875 439.597656 875.703125 440.132812 C 876.238281 440.664062 876.742188 441.222656 877.21875 441.804688 C 877.699219 442.386719 878.144531 442.992188 878.566406 443.617188 C 878.984375 444.246094 879.371094 444.890625 879.726562 445.554688 C 880.082031 446.21875 880.402344 446.898438 880.691406 447.59375 C 880.980469 448.292969 881.234375 449 881.453125 449.722656 C 881.667969 450.441406 881.851562 451.171875 882 451.910156 C 882.148438 452.648438 882.257812 453.394531 882.332031 454.144531 C 882.40625 454.894531 882.441406 455.644531 882.441406 456.398438 L 882.441406 686.445312 L 964.335938 686.445312 C 965.457031 686.460938 966.570312 686.554688 967.675781 686.734375 C 968.78125 686.914062 969.867188 687.171875 970.933594 687.507812 C 972.003906 687.84375 973.042969 688.257812 974.046875 688.746094 C 975.054688 689.234375 976.023438 689.792969 976.949219 690.421875 C 977.875 691.050781 978.75 691.746094 979.574219 692.503906 C 980.398438 693.261719 981.164062 694.074219 981.871094 694.941406 C 982.578125 695.8125 983.214844 696.726562 983.789062 697.691406 C 984.359375 698.652344 984.859375 699.652344 985.285156 700.6875 C 985.710938 701.722656 986.0625 702.78125 986.332031 703.871094 C 986.605469 704.957031 986.796875 706.054688 986.90625 707.171875 C 987.015625 708.285156 987.046875 709.402344 986.992188 710.519531 C 986.941406 711.636719 986.808594 712.746094 986.59375 713.847656 C 986.378906 714.945312 986.085938 716.023438 985.714844 717.078125 C 985.34375 718.136719 984.898438 719.160156 984.375 720.148438 C 983.855469 721.140625 983.265625 722.089844 982.605469 722.996094 C 981.945312 723.898438 981.226562 724.75 980.441406 725.550781 L 876 829.992188 L 769.261719 937.191406 C 768.207031 938.265625 767.0625 939.226562 765.824219 940.074219 C 764.582031 940.925781 763.273438 941.644531 761.890625 942.234375 C 760.511719 942.828125 759.085938 943.28125 757.613281 943.59375 C 756.144531 943.90625 754.660156 944.074219 753.15625 944.09375 C 751.617188 944.101562 750.089844 943.957031 748.578125 943.660156 C 747.066406 943.363281 745.597656 942.917969 744.175781 942.324219 C 742.75 941.730469 741.402344 941.003906 740.125 940.140625 C 738.851562 939.277344 737.671875 938.292969 736.59375 937.191406 L 632.152344 831.371094 L 527.253906 726.472656 C 526.453125 725.632812 525.71875 724.742188 525.054688 723.792969 C 524.390625 722.84375 523.800781 721.851562 523.285156 720.8125 C 522.769531 719.777344 522.335938 718.707031 521.980469 717.601562 C 521.628906 716.5 521.359375 715.375 521.175781 714.234375 C 520.992188 713.089844 520.894531 711.9375 520.886719 710.78125 C 520.875 709.621094 520.953125 708.46875 521.117188 707.324219 C 521.28125 706.175781 521.53125 705.046875 521.863281 703.9375 C 522.199219 702.832031 522.613281 701.753906 523.113281 700.707031 Z M 986.421875 1047.613281 C 986.421875 1048.367188 986.386719 1049.117188 986.3125 1049.867188 C 986.238281 1050.617188 986.128906 1051.363281 985.980469 1052.101562 C 985.832031 1052.839844 985.648438 1053.570312 985.429688 1054.292969 C 985.210938 1055.011719 984.960938 1055.722656 984.671875 1056.417969 C 984.382812 1057.113281 984.0625 1057.792969 983.707031 1058.457031 C 983.351562 1059.121094 982.964844 1059.769531 982.546875 1060.394531 C 982.125 1061.019531 981.679688 1061.625 981.199219 1062.207031 C 980.722656 1062.789062 980.21875 1063.347656 979.683594 1063.878906 C 979.152344 1064.414062 978.59375 1064.917969 978.011719 1065.398438 C 977.429688 1065.875 976.824219 1066.324219 976.199219 1066.742188 C 975.570312 1067.160156 974.925781 1067.546875 974.261719 1067.902344 C 973.597656 1068.257812 972.917969 1068.578125 972.222656 1068.867188 C 971.523438 1069.15625 970.816406 1069.410156 970.09375 1069.628906 C 969.375 1069.847656 968.644531 1070.03125 967.90625 1070.175781 C 967.167969 1070.324219 966.421875 1070.433594 965.671875 1070.507812 C 964.921875 1070.582031 964.171875 1070.617188 963.417969 1070.617188 L 542.894531 1070.617188 C 542.140625 1070.617188 541.390625 1070.582031 540.640625 1070.507812 C 539.890625 1070.433594 539.148438 1070.324219 538.40625 1070.175781 C 537.667969 1070.03125 536.9375 1069.847656 536.21875 1069.628906 C 535.496094 1069.410156 534.789062 1069.15625 534.09375 1068.867188 C 533.394531 1068.578125 532.714844 1068.257812 532.050781 1067.902344 C 531.386719 1067.546875 530.742188 1067.160156 530.113281 1066.742188 C 529.488281 1066.324219 528.882812 1065.875 528.300781 1065.398438 C 527.71875 1064.917969 527.160156 1064.414062 526.628906 1063.878906 C 526.097656 1063.347656 525.589844 1062.789062 525.113281 1062.207031 C 524.636719 1061.625 524.1875 1061.019531 523.769531 1060.394531 C 523.347656 1059.769531 522.960938 1059.121094 522.609375 1058.457031 C 522.253906 1057.792969 521.929688 1057.113281 521.640625 1056.417969 C 521.355469 1055.722656 521.101562 1055.011719 520.882812 1054.292969 C 520.664062 1053.570312 520.480469 1052.839844 520.332031 1052.101562 C 520.1875 1051.363281 520.074219 1050.617188 520.003906 1049.867188 C 519.929688 1049.117188 519.890625 1048.367188 519.890625 1047.613281 L 519.890625 1001.605469 C 519.890625 1000.851562 519.929688 1000.101562 520.003906 999.351562 C 520.074219 998.601562 520.1875 997.855469 520.332031 997.117188 C 520.480469 996.378906 520.664062 995.648438 520.882812 994.925781 C 521.101562 994.207031 521.355469 993.496094 521.640625 992.800781 C 521.929688 992.105469 522.253906 991.425781 522.609375 990.761719 C 522.960938 990.097656 523.351562 989.449219 523.769531 988.824219 C 524.1875 988.199219 524.636719 987.59375 525.113281 987.011719 C 525.589844 986.429688 526.097656 985.871094 526.628906 985.339844 C 527.160156 984.804688 527.71875 984.300781 528.300781 983.824219 C 528.882812 983.34375 529.488281 982.894531 530.113281 982.476562 C 530.742188 982.058594 531.386719 981.671875 532.050781 981.316406 C 532.714844 980.960938 533.394531 980.640625 534.09375 980.351562 C 534.789062 980.0625 535.496094 979.808594 536.21875 979.589844 C 536.9375 979.371094 537.667969 979.191406 538.40625 979.042969 C 539.148438 978.894531 539.890625 978.785156 540.640625 978.710938 C 541.390625 978.636719 542.140625 978.601562 542.894531 978.601562 L 962.957031 978.601562 C 963.710938 978.601562 964.460938 978.636719 965.210938 978.710938 C 965.960938 978.785156 966.707031 978.894531 967.445312 979.042969 C 968.183594 979.191406 968.914062 979.371094 969.636719 979.589844 C 970.355469 979.808594 971.066406 980.0625 971.761719 980.351562 C 972.457031 980.640625 973.136719 980.960938 973.800781 981.316406 C 974.464844 981.671875 975.113281 982.058594 975.738281 982.476562 C 976.363281 982.894531 976.96875 983.34375 977.550781 983.824219 C 978.132812 984.300781 978.691406 984.804688 979.222656 985.339844 C 979.757812 985.871094 980.261719 986.429688 980.738281 987.011719 C 981.21875 987.59375 981.667969 988.199219 982.085938 988.824219 C 982.503906 989.449219 982.890625 990.097656 983.246094 990.761719 C 983.601562 991.425781 983.921875 992.105469 984.210938 992.800781 C 984.5 993.496094 984.753906 994.207031 984.972656 994.925781 C 985.191406 995.648438 985.371094 996.378906 985.519531 997.117188 C 985.667969 997.855469 985.777344 998.601562 985.851562 999.351562 C 985.925781 1000.101562 985.960938 1000.851562 985.960938 1001.605469 L 985.960938 1047.613281 Z M 986.421875 1047.613281 " fill-opacity="1" fill-rule="nonzero"/></g></svg>